<?xml version="1.0" encoding="UTF-8"?><svg id="Layer_2" xmlns="http://www.w3.org/2000/svg" viewBox="0 0 347.24 86.41"><defs><style>.cls-1{letter-spacing:-.04em;}.cls-2{font-size:6.74px;letter-spacing:-.05em;}.cls-2,.cls-3,.cls-4{fill:#fff;}.cls-2,.cls-4{font-family:Montserrat-Regular, Montserrat;}.cls-5{letter-spacing:-.07em;}.cls-6{letter-spacing:-.03em;}.cls-7{letter-spacing:-.03em;}.cls-8{letter-spacing:-.02em;}.cls-9{letter-spacing:-.02em;}.cls-10{letter-spacing:-.02em;}.cls-11{fill:#acafb5;font-size:15.81px;}.cls-11,.cls-3{font-family:Montserrat-Bold, Montserrat;font-weight:700;}.cls-3,.cls-4{font-size:48.16px;}.cls-12{letter-spacing:-.04em;}.cls-13{fill:#f7c31d;stroke-width:0px;}.cls-14{letter-spacing:-.06em;}.cls-15{letter-spacing:-.06em;}.cls-16{letter-spacing:-.05em;}.cls-17{letter-spacing:-.05em;}.cls-18{letter-spacing:-.04em;}</style></defs><g id="Layer_2-2"><text class="cls-2" transform="translate(337.27 32.17)"><tspan x="0" y="0">TM</tspan></text><text class="cls-4" transform="translate(180.55 56.15)"><tspan class="cls-16" x="0" y="0">Quo</tspan><tspan class="cls-5" x="95.8" y="0">t</tspan><tspan class="cls-17" x="112.03" y="0">er</tspan></text><text class="cls-3" transform="translate(58.2 56.15)"><tspan x="0" y="0">insta</tspan></text><polygon class="cls-13" points="109.47 19.84 66.22 0 0 22.52 65.99 6.11 109.47 19.84"/><text class="cls-11" transform="translate(58.59 82.2)"><tspan class="cls-9" x="0" y="0">ME</tspan><tspan class="cls-15" x="24.95" y="0">T</tspan><tspan class="cls-10" x="33.79" y="0">AL ROOF </tspan><tspan class="cls-1" x="109.79" y="0">C</tspan><tspan class="cls-10" x="120.76" y="0">O</tspan><tspan class="cls-6" x="133.73" y="0">S</tspan><tspan class="cls-9" x="143.28" y="0">T </tspan><tspan class="cls-18" x="156.77" y="0">C</tspan><tspan class="cls-10" x="167.76" y="0">A</tspan><tspan class="cls-12" x="179.49" y="0">L</tspan><tspan class="cls-7" x="188.48" y="0">C</tspan><tspan class="cls-9" x="199.59" y="0">U</tspan><tspan class="cls-8" x="211.67" y="0">L</tspan><tspan class="cls-14" x="220.94" y="0">A</tspan><tspan class="cls-6" x="232.12" y="0">T</tspan><tspan class="cls-10" x="241.35" y="0">OR</tspan></text></g></svg>