<?xml version="1.0" encoding="UTF-8"?><svg id="Layer_2" xmlns="http://www.w3.org/2000/svg" xmlns:xlink="http://www.w3.org/1999/xlink" viewBox="0 0 264.36 91.79"><defs><style>.cls-1{fill:url(#linear-gradient);}.cls-1,.cls-2,.cls-3,.cls-4{stroke-width:0px;}.cls-2{fill:#cececd;}.cls-3{fill:#f7c31d;}.cls-4{fill:#fff;}</style><linearGradient id="linear-gradient" x1="166.46" y1="26.62" x2="114.59" y2="74.99" gradientUnits="userSpaceOnUse"><stop offset="0" stop-color="#f7c31d"/><stop offset=".3" stop-color="#f7c31d"/><stop offset=".61" stop-color="#fdf0d4"/><stop offset=".61" stop-color="#f7c31d"/><stop offset="1" stop-color="#f7c31d"/></linearGradient></defs><g id="Layer_2-2"><g id="PMR_gold_white_logo"><path class="cls-4" d="M35.23,48.09c0,8.7-6.66,14.18-17.13,14.18h-5.42v9.24H0v-37.59h18.1c10.47,0,17.13,5.48,17.13,14.18ZM22.45,48.09c0-2.74-1.66-4.4-5.16-4.4h-4.62v8.81h4.62c3.49,0,5.16-1.67,5.16-4.4Z"/><path class="cls-4" d="M53.84,62.06h-3.44v9.45h-12.67v-37.59h18.1c10.47,0,17.13,5.48,17.13,14.18,0,5.42-2.58,9.5-7.09,11.81l7.89,11.6h-13.53l-6.39-9.45ZM55.03,43.69h-4.62v8.81h4.62c3.49,0,5.16-1.67,5.16-4.4s-1.66-4.4-5.16-4.4Z"/><path class="cls-4" d="M106.14,61.95v9.56h-31.25v-37.59h30.56v9.56h-18.1v4.4h15.9v9.13h-15.9v4.94h18.8Z"/><path class="cls-4" d="M176.62,33.92h12.67v37.59h-12.67v-37.59Z"/><path class="cls-4" d="M224.63,61.95v9.56h-31.25v-37.59h30.56v9.56h-18.1v4.4h15.9v9.13h-15.9v4.94h18.8Z"/><path class="cls-4" d="M244.4,62.06h-3.44v9.45h-12.67v-37.59h18.1c10.47,0,17.13,5.48,17.13,14.18,0,5.42-2.58,9.5-7.09,11.81l7.89,11.6h-13.53l-6.39-9.45ZM245.58,43.69h-4.62v8.81h4.62c3.49,0,5.16-1.67,5.16-4.4s-1.67-4.4-5.16-4.4Z"/><path class="cls-1" d="M159,35.32l10.7-5.12v41.31h-10.7v-36.19ZM121.95,71.51h-10.7V30.2s10.7,5.12,10.7,5.12v36.19ZM127.22,37.61v31.09l10.69,5.12v-31.09l-10.69-5.12ZM143.11,42.73v31.09s10.69-5.12,10.69-5.12v-31.09s-10.69,5.12-10.69,5.12Z"/><polygon class="cls-3" points="200.05 27.09 140.97 0 50.52 30.76 140.66 8.35 200.05 27.09"/><path class="cls-2" d="M66.47,89.03h-.92v2.54h-3.4v-10.08h4.85c2.81,0,4.6,1.47,4.6,3.8,0,1.45-.69,2.55-1.9,3.17l2.12,3.11h-3.63l-1.71-2.54ZM66.79,84.1h-1.24v2.36h1.24c.94,0,1.38-.45,1.38-1.18s-.45-1.18-1.38-1.18Z"/><path class="cls-2" d="M73.45,86.52c0-3.05,2.4-5.27,5.69-5.27s5.69,2.22,5.69,5.27-2.41,5.27-5.69,5.27-5.69-2.22-5.69-5.27ZM81.4,86.52c0-1.57-1.01-2.52-2.26-2.52s-2.26.95-2.26,2.52,1.01,2.52,2.26,2.52,2.26-.95,2.26-2.52Z"/><path class="cls-2" d="M86.63,86.52c0-3.05,2.4-5.27,5.69-5.27s5.69,2.22,5.69,5.27-2.41,5.27-5.69,5.27-5.69-2.22-5.69-5.27ZM94.58,86.52c0-1.57-1.01-2.52-2.26-2.52s-2.26.95-2.26,2.52,1.01,2.52,2.26,2.52,2.26-.95,2.26-2.52Z"/><path class="cls-2" d="M103.61,84.05v1.73h4.21v2.56h-4.21v3.23h-3.4v-10.08h8.2v2.56h-4.8Z"/><path class="cls-2" d="M124.67,91.56l-.03-4.6-2.19,3.69h-1.5l-2.19-3.53v4.44h-3.1v-10.08h2.8l3.28,5.37,3.2-5.37h2.79l.03,10.08h-3.1Z"/><path class="cls-2" d="M137.25,89.81h-3.83l-.68,1.76h-3.46l4.41-10.08h3.34l4.41,10.08h-3.51l-.68-1.76ZM136.31,87.36l-.98-2.54-.98,2.54h1.96Z"/><path class="cls-2" d="M152.89,81.48v10.08h-2.79l-3.83-4.58v4.58h-3.31v-10.08h2.8l3.83,4.58v-4.58h3.31Z"/><path class="cls-2" d="M155.42,87.03v-5.55h3.4v5.44c0,1.54.59,2.12,1.54,2.12s1.54-.58,1.54-2.12v-5.44h3.34v5.55c0,3.02-1.82,4.77-4.91,4.77s-4.91-1.74-4.91-4.77Z"/><path class="cls-2" d="M171.16,84.05v1.73h4.21v2.56h-4.21v3.23h-3.4v-10.08h8.2v2.56h-4.8Z"/><path class="cls-2" d="M184.52,89.81h-3.83l-.68,1.76h-3.46l4.41-10.08h3.34l4.41,10.08h-3.51l-.68-1.76ZM183.58,87.36l-.98-2.54-.98,2.54h1.96Z"/><path class="cls-2" d="M189.68,86.52c0-3.1,2.38-5.27,5.62-5.27,1.97,0,3.53.72,4.52,2.02l-2.15,1.92c-.59-.75-1.3-1.18-2.2-1.18-1.41,0-2.36.98-2.36,2.52s.95,2.52,2.36,2.52c.91,0,1.61-.43,2.2-1.18l2.15,1.92c-.99,1.3-2.55,2.02-4.52,2.02-3.24,0-5.62-2.17-5.62-5.27Z"/><path class="cls-2" d="M203.88,84.12h-2.95v-2.64h9.31v2.64h-2.95v7.45h-3.4v-7.45Z"/><path class="cls-2" d="M211.85,87.03v-5.55h3.4v5.44c0,1.54.59,2.12,1.54,2.12s1.54-.58,1.54-2.12v-5.44h3.34v5.55c0,3.02-1.82,4.77-4.91,4.77s-4.91-1.74-4.91-4.77Z"/><path class="cls-2" d="M228.52,89.03h-.92v2.54h-3.4v-10.08h4.85c2.81,0,4.6,1.47,4.6,3.8,0,1.45-.69,2.55-1.9,3.17l2.12,3.11h-3.63l-1.71-2.54ZM228.83,84.1h-1.24v2.36h1.24c.94,0,1.38-.45,1.38-1.18s-.45-1.18-1.38-1.18Z"/><path class="cls-2" d="M235.89,81.48h3.4v10.08h-3.4v-10.08Z"/><path class="cls-2" d="M251.84,81.48v10.08h-2.79l-3.83-4.58v4.58h-3.31v-10.08h2.8l3.83,4.58v-4.58h3.31Z"/><path class="cls-2" d="M261.12,86.25h2.95v4.26c-1.22.84-2.91,1.28-4.39,1.28-3.26,0-5.63-2.17-5.63-5.27s2.38-5.27,5.7-5.27c1.99,0,3.59.69,4.61,1.94l-2.17,1.92c-.63-.73-1.37-1.11-2.26-1.11-1.5,0-2.45.96-2.45,2.52s.95,2.52,2.41,2.52c.42,0,.82-.07,1.24-.24v-2.55Z"/><path class="cls-2" d="M9,91.56l-.03-4.6-2.19,3.69h-1.5l-2.19-3.53v4.44H0v-10.08h2.8l3.28,5.37,3.2-5.37h2.79l.03,10.08h-3.1Z"/><path class="cls-2" d="M23.09,89v2.56h-8.38v-10.08h8.2v2.56h-4.85v1.18h4.26v2.45h-4.26v1.33h5.04Z"/><path class="cls-2" d="M27.56,84.12h-2.95v-2.64h9.31v2.64h-2.95v7.45h-3.4v-7.45Z"/><path class="cls-2" d="M42.13,89.81h-3.83l-.68,1.76h-3.46l4.41-10.08h3.34l4.41,10.08h-3.51l-.68-1.76ZM41.19,87.36l-.98-2.54-.98,2.54h1.96Z"/><path class="cls-2" d="M47.83,81.48h3.4v7.45h4.55v2.64h-7.95v-10.08Z"/></g></g></svg>